<svg xmlns="http://www.w3.org/2000/svg" viewBox="0 0 512 640" x="0px" y="0px" fill="#070707"><title>war-ship-Military-Battle-warship</title><path d="M96,324.492l80-22.4V273.28a7.982,7.982,0,0,0-10.154-7.739l-11.058,3.1,4.9,17.165-15.384,4.4-4.928-17.246-16.338,4.574,4.65,16.276-15.384,4.4-4.674-16.357-5.8,1.623A8.035,8.035,0,0,0,96,291.2Z"/><polygon points="71.107 371.444 248 321.932 248 298.548 65.647 349.606 71.107 371.444"/><path d="M328.01,192,328,144H184v48H328.01ZM216,176H200V160h16Zm32,0H232V160h16Zm32,0H264V160h16Zm32,0H296V160h16Z"/><path d="M336,273.28v28.812l80,22.4V291.2a8.033,8.033,0,0,0-5.83-7.734l-5.8-1.625L399.692,298.2l-15.384-4.4,4.65-16.276-16.338-4.574L367.692,290.2l-15.384-4.4,4.9-17.164-11.049-3.094a7.911,7.911,0,0,0-6.988,1.305A7.993,7.993,0,0,0,336,273.28Z"/><polygon points="226.246 128 285.754 128 281.754 112 230.246 112 226.246 128"/><path d="M253.843,280.3a8,8,0,0,1,4.314,0L320,297.612V273.28a23.893,23.893,0,0,1,5.231-15.011l-19.887-29.831A8.005,8.005,0,0,1,304,224V208H208v16a8.005,8.005,0,0,1-1.344,4.438l-19.887,29.831A23.893,23.893,0,0,1,192,273.28v24.332Zm.588-32.141a8.006,8.006,0,0,1,3.138,0l40,8-3.138,15.69L256,264.158l-38.431,7.687-3.138-15.69Z"/><path d="M230.138,445.44c15.468,0,23.775,5.982,30.451,10.788,6.03,4.342,10.794,7.772,21.1,7.772s15.06-3.43,21.087-7.771c6.672-4.806,14.976-10.789,30.439-10.789s23.781,5.981,30.459,10.788c6.033,4.342,10.8,7.772,21.112,7.772s15.093-3.431,21.132-7.774c4.206-3.026,9.065-6.515,15.949-8.686l15.142-60.567L264,338.547V440H248V338.547L74.99,386.973,92.947,458.8c1.208-.8,2.409-1.663,3.664-2.567,6.674-4.807,14.98-10.789,30.446-10.789s23.772,5.982,30.446,10.789C163.531,460.57,168.293,464,178.6,464s15.066-3.43,21.1-7.771C206.366,451.422,214.672,445.44,230.138,445.44ZM312,376h16v16H312Zm-32-16h16v16H280Zm-64,0h16v16H216Zm-32,16h16v16H184Z"/><polygon points="446.353 349.606 264 298.548 264 321.932 440.893 371.444 446.353 349.606"/><polygon points="118.646 262.141 111.692 237.802 96.308 242.198 103.238 266.455 118.646 262.141"/><polygon points="128.308 234.198 134.984 257.566 150.393 253.252 143.692 229.802 128.308 234.198"/><rect x="144" y="160" width="24" height="16"/><polygon points="296 64 264 64 264 48 280 48 280 32 264 32 264 16 248 16 248 32 232 32 232 48 248 48 248 64 216 64 216 80 248 80 248 96 264 96 264 80 296 80 296 64"/><rect x="344" y="160" width="24" height="16"/><polygon points="377.016 257.567 383.692 234.198 368.308 229.802 361.607 253.252 377.016 257.567"/><polygon points="415.692 242.198 400.308 237.802 393.354 262.141 408.762 266.455 415.692 242.198"/></svg>